# xmcd
#
# Track frame offsets:
#	187
#	18190
#	32800
#	48360
#	65725
#	84387
#	103600
#	120215
#	136395
#	154540
#
# Disc length: 2257 seconds
#
# Revision: 5
# Processed by: cddbd v1.5.1PL2 Copyright (c) Steve Scherf et al.
# Submitted via: dBpowerAMP V4.0
#
DISCID=7408cf0a
DTITLE=Ronnie Milsap - Greatest Hits Vol. 2
DYEAR=1985
DGENRE=Country
TTITLE0=She Keeps The Home Fires Burning
TTITLE1=(There's) No Gettin' Over Me
TTITLE2=I Wouldn't Have Missed It For The World
TTITLE3=It's Already Taken
TTITLE4=Stranger In My Houes
TTITLE5=Lost In The Fifties Tonight (In The Still Of The Night)
TTITLE6=Any Day Now
TTITLE7=Am I Losing You
TTITLE8=Inside
TTITLE9=Don't You Know How Much I Love You
EXTD=
EXTT0=
EXTT1=
EXTT2=
EXTT3=
EXTT4=
EXTT5=
EXTT6=
EXTT7=
EXTT8=
EXTT9=
PLAYORDER=
